Fly_normalized_Motion_pl03
version=1
nRows=18
nColumns=43
inDegrees=yes
endheader
time		pelvis_tilt		pelvis_list		pelvis_rotation		pelvis_tx		pelvis_ty		pelvis_tz		hip_flexion_r		hip_adduction_r		hip_rotation_r		knee_angle_r		ankle_angle_r		subtalar_angle_r		mtp_angle_r		hip_flexion_l		hip_adduction_l		hip_rotation_l		knee_angle_l		ankle_angle_l		subtalar_angle_l		mtp_angle_l		lumbar_extension		lumbar_bending		lumbar_rotation		neck_flexion		neck_lateral_bending		neck_rotation		arm_flex_r		arm_add_r		arm_rot_r		elbow_flex_r		pro_sup_r		wrist_flex_r		wrist_dev_r		hand_finger_flex_r		arm_flex_l		arm_add_l		arm_rot_l		elbow_flex_l		pro_sup_l		wrist_flex_l		wrist_dev_l		hand_finger_flex_l		
0.766667		0.376445		3.191245		88.763260		0.015469		1.854093		1.234911		52.124385		-2.539759		-0.288811		-88.694789		-17.716883		-11.134341		18.627921		45.234291		-1.193300		-3.854158		-77.381602		-20.147527		-15.453340		14.510379		-64.510438		0.869621		1.753724		16.394297		-1.532225		0.545269		81.330121		-27.060767		35.267857		48.070037		98.491157		-27.499472		3.239368		35.784804		75.342322		-23.460946		27.042440		55.017744		120.898145		-13.124760		16.938981		70.929590		
0.771035		0.534382		3.697601		88.800534		0.015460		1.849504		1.226944		51.739358		-2.414722		-0.480549		-86.981919		-18.037421		-11.047934		18.487666		44.454887		-1.327154		-3.921194		-75.286268		-20.237675		-15.211318		14.847776		-65.090939		1.041313		1.845141		16.277590		-1.686910		0.573386		79.183768		-27.687023		34.610497		47.543440		99.823798		-26.962572		3.727359		36.043232		73.326928		-24.048963		26.848139		54.555995		121.844119		-12.264510		17.013682		71.068345		
0.775404		0.711279		4.274693		88.829294		0.015459		1.844943		1.218813		51.186003		-2.266833		-0.681266		-85.176459		-18.372980		-10.971242		18.321793		43.505467		-1.489224		-3.999825		-73.129501		-20.316160		-14.971067		15.307583		-65.743027		1.207924		1.936402		16.215289		-1.815575		0.591364		76.905169		-28.213914		33.604804		47.023843		101.549507		-26.297304		4.303034		36.339531		71.236079		-24.596236		26.426328		54.113836		123.027750		-11.204568		17.027732		71.204811		
0.779773		0.850198		5.030145		88.753370		0.015697		1.840592		1.210343		50.373964		-2.062213		-0.743077		-83.280777		-18.974050		-10.603291		18.222521		42.239822		-1.711256		-4.223512		-70.903760		-20.526176		-14.964638		15.453737		-66.559937		1.249946		1.975402		16.114840		-2.000588		0.677960		74.451962		-28.618774		32.535378		46.545995		101.925784		-26.522731		4.636940		36.260133		68.963787		-25.267672		25.886087		53.835505		123.346257		-10.894660		16.936254		71.393241		
0.784141		0.933019		5.167028		88.754802		0.015606		1.834461		1.202190		50.265394		-1.968124		-0.844493		-81.465283		-19.135127		-10.430330		18.181647		41.694499		-1.797643		-4.369222		-68.739493		-20.603015		-14.909224		15.477744		-66.633641		1.335708		1.989087		15.794733		-2.035058		0.698994		72.233403		-29.398727		32.663517		45.949356		102.078283		-26.382809		4.873015		36.340273		66.814788		-26.016988		26.088055		53.379330		123.464280		-10.621974		16.996292		71.562925		
0.788510		0.800317		6.317289		88.409481		0.016073		1.830330		1.193239		48.906966		-1.813199		-0.583342		-79.515910		-19.361733		-10.090385		18.231084		39.712115		-1.966509		-5.094514		-66.324086		-20.760678		-15.142981		15.946238		-67.803878		0.948349		1.897583		15.617162		-2.085149		0.775652		69.613274		-29.893539		31.272265		45.681989		103.722123		-25.730644		5.512681		36.707792		64.416404		-26.534008		25.020018		53.128762		124.801719		-9.604356		16.510229		72.980665		
0.792879		0.859332		6.403532		88.395157		0.016073		1.823629		1.184933		48.735416		-1.728144		-0.637312		-77.572406		-19.776125		-9.746216		18.188016		39.120429		-2.012071		-5.218162		-64.126056		-20.879211		-15.145358		15.973869		-67.781242		0.994814		1.865401		15.258494		-2.152670		0.806032		67.217020		-30.620569		31.248224		45.144060		103.766963		-25.557010		5.714502		36.815193		62.131095		-27.311426		25.074866		52.696800		124.887097		-9.370232		16.541509		73.301837		
0.797247		0.812931		6.967535		88.214649		0.016301		1.817699		1.176191		47.950615		-1.660475		-0.548820		-75.548624		-20.357824		-9.259245		18.204725		37.848230		-2.078440		-5.626741		-61.841423		-21.107968		-15.381406		16.115930		-68.269428		0.819841		1.756658		15.023907		-2.260206		0.911333		64.572071		-31.158250		30.390346		44.769471		103.968827		-25.276261		6.001653		37.006879		59.622027		-27.997683		24.441671		52.425509		125.275234		-9.061627		16.412751		74.145156		
0.801616		0.610551		7.872720		87.916902		0.016712		1.812093		1.167186		46.700434		-1.658899		-0.321544		-73.502624		-20.532830		-9.015907		18.463392		36.065098		-2.091427		-6.355542		-59.440625		-21.399889		-15.763947		16.434861		-69.057557		0.418904		1.529213		14.602594		-2.266897		1.011942		61.910436		-31.717473		29.532861		44.432483		104.697326		-24.413479		6.433292		37.353757		57.100750		-28.658773		23.789509		52.155196		126.567174		-8.605669		16.242587		75.147822		
0.805985		0.538048		8.275479		87.729699		0.016932		1.805193		1.158409		45.964386		-1.663046		-0.322038		-71.414263		-20.815719		-8.763917		18.583966		34.929229		-2.105864		-6.743056		-57.189377		-21.583104		-15.938530		16.613356		-69.288363		0.207359		1.402664		14.214692		-2.314048		1.088315		59.309729		-32.314148		29.152696		43.906631		105.065198		-23.875446		6.743773		37.560921		54.628404		-29.357808		23.533966		51.727913		127.252337		-8.290338		16.184147		75.684770		
0.810354		0.486596		9.509464		87.429844		0.017235		1.799811		1.148996		44.159294		-1.640742		-0.296391		-69.192935		-21.395731		-8.744904		18.867122		32.701321		-2.224355		-7.486108		-54.806221		-21.972180		-16.332006		17.003188		-70.379219		-0.084650		1.253571		13.799983		-2.442186		1.303028		56.486944		-32.718630		27.874037		43.546818		105.534535		-23.033266		6.955477		37.693642		51.774001		-29.949306		22.357383		51.642837		128.297547		-8.086573		15.831231		75.388837		
0.814722		0.526494		10.160454		87.306592		0.017313		1.792939		1.139925		42.983471		-1.650983		-0.431213		-66.963704		-22.144588		-8.639596		18.906181		31.230080		-2.279559		-7.794618		-52.561232		-22.246669		-16.418918		17.182204		-70.811130		-0.151061		1.138680		13.322580		-2.578882		1.465443		53.739717		-33.183916		27.255483		43.041865		105.621172		-22.601286		7.037195		37.722789		49.039328		-30.576591		21.612434		51.292765		128.530046		-7.865208		15.619826		75.038278		
0.819091		0.549662		10.871852		87.171983		0.017316		1.785778		1.130672		41.675609		-1.728361		-0.680452		-64.720584		-22.606044		-8.767376		18.917433		29.686916		-2.321046		-8.189301		-50.387332		-22.494635		-16.450618		17.350857		-71.241515		-0.232683		1.011148		12.713336		-2.697218		1.610940		50.987018		-33.712543		26.859147		42.522846		105.785880		-22.058478		7.100678		37.763838		46.246109		-31.233322		20.971090		51.025442		128.800002		-7.577247		15.359935		74.695335		
0.823460		0.570046		11.630732		87.044175		0.017339		1.778346		1.121325		40.260534		-1.817707		-0.943621		-62.456686		-23.000437		-8.936130		18.890741		28.088738		-2.368507		-8.637389		-48.274222		-22.728798		-16.407129		17.611066		-71.671399		-0.309768		0.855756		12.022331		-2.817522		1.769802		48.208457		-34.214073		26.468149		42.008720		106.144448		-21.323527		7.153675		37.720013		43.376093		-31.901937		20.264430		50.821046		129.223837		-7.112826		15.008895		74.355276		
0.827828		0.561805		12.363667		86.920915		0.017415		1.770533		1.111917		38.846426		-1.953186		-1.245939		-60.193763		-23.423457		-9.094353		18.785700		26.500535		-2.369972		-9.042896		-46.172372		-22.946639		-16.287796		17.943942		-72.033014		-0.410886		0.677051		11.287083		-2.940762		1.935004		45.363188		-34.677687		25.992241		41.489260		106.563509		-20.484814		7.178473		37.571561		40.434730		-32.529986		19.414421		50.647014		129.668555		-6.603544		14.610961		74.059274		
0.832197		0.461269		13.416235		86.913475		0.017203		1.762962		1.102166		37.066092		-2.276236		-1.606299		-57.999905		-24.175339		-9.332933		18.346210		24.489701		-2.214037		-9.476334		-43.994122		-23.283771		-16.029725		18.412602		-72.670069		-0.452105		0.339062		10.439893		-3.063505		2.108354		42.256011		-35.004735		24.785945		41.129798		106.723849		-19.547541		7.000813		37.134648		37.133820		-32.952658		17.685153		50.613589		129.854107		-6.516571		14.105663		73.857888		
0.836566		0.391896		13.993052		86.916527		0.017143		1.753922		1.092590		35.830749		-2.531514		-1.986635		-55.877522		-24.630157		-9.410413		17.995811		23.134178		-2.114511		-9.798933		-42.069918		-23.556260		-15.779598		18.594631		-72.745348		-0.497020		0.111333		9.499134		-3.135127		2.200516		39.180816		-35.457375		24.233781		40.681728		106.628134		-18.998212		6.935475		36.986196		34.005623		-33.502919		16.772920		50.499250		129.815388		-6.666510		13.883141		73.885572		
0.840934		0.330266		14.508642		86.874667		0.017125		1.744629		1.082970		34.578235		-2.754335		-2.378331		-53.639792		-24.984156		-9.429225		17.644714		21.842616		-2.022758		-10.087342		-40.205127		-23.785140		-15.513137		18.769327		-72.756037		-0.579932		-0.093330		8.704737		-3.212703		2.291230		36.147165		-35.870550		23.741763		40.140697		106.596115		-18.426548		6.919488		36.847604		30.918235		-34.003707		15.920012		50.307936		129.828183		-6.830259		13.671065		73.949255		
